<svg xmlns="http://www.w3.org/2000/svg" width="29" height="29"><rect id="backgroundrect" width="100%" height="100%" x="0" y="0" fill="none" stroke="none" class="" style=""/>
    
<g class="currentLayer" style=""><title>Layer 1</title><path style="line-height:normal;text-indent:0;text-align:start;text-decoration-line:none;text-decoration-style:solid;text-decoration-color:#000;text-transform:none;block-progression:tb;isolation:auto;mix-blend-mode:normal" d="M8.4275993468246,6.285714149475098 L8.4275993468246,7.730257301162751 L6.938775371183699,7.730257301162751 L6.938775371183699,22.89796039388311 L16.24392521893933,22.89796039388311 L16.61613121284956,22.89796039388311 L22.57142711541316,22.89796039388311 L22.57142711541316,10.619343604538058 L16.61613121284956,10.619343604538058 L16.61613121284956,7.730257301162751 L15.127307237208656,7.730257301162751 L15.127307237208656,6.285714149475098 L8.4275993468246,6.285714149475098 zM9.17201133464505,7.007985725318925 L14.382895249388206,7.007985725318925 L14.382895249388206,8.452528877006579 L14.755101243298432,8.452528877006579 L15.871719225029107,8.452528877006579 L15.871719225029107,22.175688818039283 L12.52186527983708,22.175688818039283 L12.52186527983708,19.647738302585893 L11.033041304196178,19.647738302585893 L11.033041304196178,22.175688818039283 L7.683187359004149,22.175688818039283 L7.683187359004149,8.452528877006579 L9.17201133464505,8.452528877006579 L9.17201133464505,7.007985725318925 zM9.17201133464505,9.174800452850405 L9.17201133464505,9.89707202869423 L9.916423322465501,9.89707202869423 L9.916423322465501,9.174800452850405 L9.17201133464505,9.174800452850405 zM10.660835310285952,9.174800452850405 L10.660835310285952,9.89707202869423 L11.405247298106403,9.89707202869423 L11.405247298106403,9.174800452850405 L10.660835310285952,9.174800452850405 zM12.149659285926854,9.174800452850405 L12.149659285926854,9.89707202869423 L12.894071273747304,9.89707202869423 L12.894071273747304,9.174800452850405 L12.149659285926854,9.174800452850405 zM13.638483261567755,9.174800452850405 L13.638483261567755,9.89707202869423 L14.382895249388206,9.89707202869423 L14.382895249388206,9.174800452850405 L13.638483261567755,9.174800452850405 zM9.17201133464505,10.980479392459971 L9.17201133464505,12.425022544147625 L9.916423322465501,12.425022544147625 L9.916423322465501,10.980479392459971 L9.17201133464505,10.980479392459971 zM10.660835310285952,10.980479392459971 L10.660835310285952,12.425022544147625 L11.405247298106403,12.425022544147625 L11.405247298106403,10.980479392459971 L10.660835310285952,10.980479392459971 zM12.149659285926854,10.980479392459971 L12.149659285926854,12.425022544147625 L12.894071273747304,12.425022544147625 L12.894071273747304,10.980479392459971 L12.149659285926854,10.980479392459971 zM13.638483261567755,10.980479392459971 L13.638483261567755,12.425022544147625 L14.382895249388206,12.425022544147625 L14.382895249388206,10.980479392459971 L13.638483261567755,10.980479392459971 zM16.61613121284956,11.341615180381885 L21.827015127592713,11.341615180381885 L21.827015127592713,22.175688818039283 L16.61613121284956,22.175688818039283 L16.61613121284956,11.341615180381885 zM17.36054320067001,12.063886756225711 L17.36054320067001,12.786158332069538 L18.104955188490457,12.786158332069538 L18.104955188490457,12.063886756225711 L17.36054320067001,12.063886756225711 zM18.84936717631091,12.063886756225711 L18.84936717631091,12.786158332069538 L19.59377916413136,12.786158332069538 L19.59377916413136,12.063886756225711 L18.84936717631091,12.063886756225711 zM20.33819115195181,12.063886756225711 L20.33819115195181,12.786158332069538 L21.08260313977226,12.786158332069538 L21.08260313977226,12.063886756225711 L20.33819115195181,12.063886756225711 zM9.17201133464505,13.147294119991452 L9.17201133464505,14.591837271679104 L9.916423322465501,14.591837271679104 L9.916423322465501,13.147294119991452 L9.17201133464505,13.147294119991452 zM10.660835310285952,13.147294119991452 L10.660835310285952,14.591837271679104 L11.405247298106403,14.591837271679104 L11.405247298106403,13.147294119991452 L10.660835310285952,13.147294119991452 zM12.149659285926854,13.147294119991452 L12.149659285926854,14.591837271679104 L12.894071273747304,14.591837271679104 L12.894071273747304,13.147294119991452 L12.149659285926854,13.147294119991452 zM13.638483261567755,13.147294119991452 L13.638483261567755,14.591837271679104 L14.382895249388206,14.591837271679104 L14.382895249388206,13.147294119991452 L13.638483261567755,13.147294119991452 zM17.36054320067001,13.508429907913364 L17.36054320067001,14.23070148375719 L18.104955188490457,14.23070148375719 L18.104955188490457,13.508429907913364 L17.36054320067001,13.508429907913364 zM18.84936717631091,13.508429907913364 L18.84936717631091,14.23070148375719 L19.59377916413136,14.23070148375719 L19.59377916413136,13.508429907913364 L18.84936717631091,13.508429907913364 zM20.33819115195181,13.508429907913364 L20.33819115195181,14.23070148375719 L21.08260313977226,14.23070148375719 L21.08260313977226,13.508429907913364 L20.33819115195181,13.508429907913364 zM17.36054320067001,14.952973059601018 L17.36054320067001,15.675244635444844 L18.104955188490457,15.675244635444844 L18.104955188490457,14.952973059601018 L17.36054320067001,14.952973059601018 zM18.84936717631091,14.952973059601018 L18.84936717631091,15.675244635444844 L19.59377916413136,15.675244635444844 L19.59377916413136,14.952973059601018 L18.84936717631091,14.952973059601018 zM20.33819115195181,14.952973059601018 L20.33819115195181,15.675244635444844 L21.08260313977226,15.675244635444844 L21.08260313977226,14.952973059601018 L20.33819115195181,14.952973059601018 zM9.17201133464505,15.314108847522931 L9.17201133464505,16.758651999210585 L9.916423322465501,16.758651999210585 L9.916423322465501,15.314108847522931 L9.17201133464505,15.314108847522931 zM10.660835310285952,15.314108847522931 L10.660835310285952,16.758651999210585 L11.405247298106403,16.758651999210585 L11.405247298106403,15.314108847522931 L10.660835310285952,15.314108847522931 zM12.149659285926854,15.314108847522931 L12.149659285926854,16.758651999210585 L12.894071273747304,16.758651999210585 L12.894071273747304,15.314108847522931 L12.149659285926854,15.314108847522931 zM13.638483261567755,15.314108847522931 L13.638483261567755,16.758651999210585 L14.382895249388206,16.758651999210585 L14.382895249388206,15.314108847522931 L13.638483261567755,15.314108847522931 zM17.36054320067001,16.39751621128867 L17.36054320067001,17.1197877871325 L18.104955188490457,17.1197877871325 L18.104955188490457,16.39751621128867 L17.36054320067001,16.39751621128867 zM18.84936717631091,16.39751621128867 L18.84936717631091,17.1197877871325 L19.59377916413136,17.1197877871325 L19.59377916413136,16.39751621128867 L18.84936717631091,16.39751621128867 zM20.33819115195181,16.39751621128867 L20.33819115195181,17.1197877871325 L21.08260313977226,17.1197877871325 L21.08260313977226,16.39751621128867 L20.33819115195181,16.39751621128867 zM9.17201133464505,17.480923575054412 L9.17201133464505,18.925466726742066 L9.916423322465501,18.925466726742066 L9.916423322465501,17.480923575054412 L9.17201133464505,17.480923575054412 zM10.660835310285952,17.480923575054412 L10.660835310285952,18.925466726742066 L11.405247298106403,18.925466726742066 L11.405247298106403,17.480923575054412 L10.660835310285952,17.480923575054412 zM12.149659285926854,17.480923575054412 L12.149659285926854,18.925466726742066 L12.894071273747304,18.925466726742066 L12.894071273747304,17.480923575054412 L12.149659285926854,17.480923575054412 zM13.638483261567755,17.480923575054412 L13.638483261567755,18.925466726742066 L14.382895249388206,18.925466726742066 L14.382895249388206,17.480923575054412 L13.638483261567755,17.480923575054412 zM17.36054320067001,17.842059362976325 L17.36054320067001,18.564330938820152 L18.104955188490457,18.564330938820152 L18.104955188490457,17.842059362976325 L17.36054320067001,17.842059362976325 zM18.84936717631091,17.842059362976325 L18.84936717631091,18.564330938820152 L19.59377916413136,18.564330938820152 L19.59377916413136,17.842059362976325 L18.84936717631091,17.842059362976325 zM20.33819115195181,17.842059362976325 L20.33819115195181,18.564330938820152 L21.08260313977226,18.564330938820152 L21.08260313977226,17.842059362976325 L20.33819115195181,17.842059362976325 zM17.36054320067001,19.28660251466398 L17.36054320067001,20.008874090507806 L18.104955188490457,20.008874090507806 L18.104955188490457,19.28660251466398 L17.36054320067001,19.28660251466398 zM18.84936717631091,19.28660251466398 L18.84936717631091,20.008874090507806 L19.59377916413136,20.008874090507806 L19.59377916413136,19.28660251466398 L18.84936717631091,19.28660251466398 zM20.33819115195181,19.28660251466398 L20.33819115195181,20.008874090507806 L21.08260313977226,20.008874090507806 L21.08260313977226,19.28660251466398 L20.33819115195181,19.28660251466398 zM9.17201133464505,19.647738302585893 L9.17201133464505,21.453417242195457 L9.916423322465501,21.453417242195457 L9.916423322465501,19.647738302585893 L9.17201133464505,19.647738302585893 zM13.638483261567755,19.647738302585893 L13.638483261567755,21.453417242195457 L14.382895249388206,21.453417242195457 L14.382895249388206,19.647738302585893 L13.638483261567755,19.647738302585893 zM17.36054320067001,20.73114566635163 L17.36054320067001,21.453417242195457 L18.104955188490457,21.453417242195457 L18.104955188490457,20.73114566635163 L17.36054320067001,20.73114566635163 zM18.84936717631091,20.73114566635163 L18.84936717631091,21.453417242195457 L19.59377916413136,21.453417242195457 L19.59377916413136,20.73114566635163 L18.84936717631091,20.73114566635163 zM20.33819115195181,20.73114566635163 L20.33819115195181,21.453417242195457 L21.08260313977226,21.453417242195457 L21.08260313977226,20.73114566635163 L20.33819115195181,20.73114566635163 z" id="svg_1" class="" fill="#919191" fill-opacity="1"/></g></svg>